<svg width="180" height="95" fill="none" xmlns="http://www.w3.org/2000/svg"><path d="M4.895 0l-.113 88.046h1.98l.02-72.83L12.137 27.7l5.016-12.663.01 39.56h1.966L19.142.023 12.15 15.928 4.895 0z" fill="#009037"/><path d="M4.245 94.929h3.07v-6.884h-3.07v6.884zM14.582 55.818h7.096v-1.223H14.58v1.223z" fill="#FFED00"/><path d="M27.795 58.234c3.262-3.654 12.008-16.449 12.827-21.779.795-5.182-.683-9.795-20.695 9.003l-.057-.023c7.912-9.578 22.571-22.989 24.845-14.854 2.273 8.133-2.73 19.609-12.827 30.456C21.791 71.88 12.693 75.406 4.963 71.79c-7.683-3.592-6.1-14.9 2.365-28.376C15.33 30.67 37.983 13.86 37.983 13.86l.092 8.314s-12.918 6.96-22.47 18.98c0 0-10.097 11.747-11.37 17.621-1.274 5.875-.547 6.96.18 8.496.728 1.538 3.186 2.442 5.277 2.17 2.091-.272 9.552-1.63 18.103-11.207z" fill="#E2001A"/><path d="M54.931 38.4c.824-4.367 1.838-5.548 3.139-5.548 1.168 0 2.161 1.062 2.161 5.665v16.407h1.186v1.65h-4.784v-1.65h1.035v-15.05c0-3.777-.289-4.603-.823-4.603-1.226 0-1.914 4.84-1.914 8.086v11.567h1.014v1.65h-4.802v-1.65h1.225V34.859h-1.225v-1.652h1.225c.86 0 1.703-.236 2.563-.236V38.4zM69.663 26.657h1.129c.498 0 1.014-.412 1.51-.591v7.612h1.456v1.652h-1.457v15.993c0 1.181-.094 3.01.462 3.01.743 0 .878-1.829.995-3.717l.553.353c-.326 4.78-1.358 6.49-2.87 6.49-1.778 0-1.778-2.36-1.778-5.31V35.33h-1.168v-1.652h1.168v-7.021zM88.425 37.042c0-1.593-.438-2.654-.956-2.654-.994 0-1.95 4.011-1.95 5.9v9.147c0 2.595.956 6.49 1.97 6.49.9 0 .936-2.183.936-4.482v-14.4zm-5.547-18.528h-1.072V16.86h1.072c.88 0 1.76-.412 2.64-.59V37.1c.553-2.654 1.263-4.25 2.316-4.25 1.989 0 3.595 5.844 3.595 11.863 0 6.135-1.455 12.745-3.595 12.745-1.11 0-1.8-1.829-2.279-4.662h-.036v3.779h-3.75v-1.653h1.109v-36.41zM102.888 27.188h-1.168l1.856-6.55c.517-1.829 1.015-4.367 1.877-4.367.459 0 .84 1.181.84 2.595 0 1.596-.402 2.362-.782 3.129l-2.623 5.193zm1.838 15.462v-5.784c0-1.535-.422-2.478-1.34-2.478-.824 0-1.168 1.121-1.168 2.714v5.548h2.508zm-2.508 1.533v7.612c0 3.07.555 4.131 1.549 4.131 1.514 0 2.698-2.303 3.139-6.905l.44.471c-.498 5.491-1.932 7.967-3.712 7.967-2.373 0-4.516-4.13-4.516-12.155 0-8.026 2.297-12.452 4.477-12.452 1.895 0 3.712 4.074 3.712 10.21 0 1.416-.592 1.121-.899 1.121h-4.19zM115.917 18.513h-1.34v-1.652h1.34c.879 0 1.76-.412 2.641-.59v38.652h1.244v1.653h-5.032v-1.653h1.147v-36.41zM130.646 23.588c0 2.243-.634 4.25-1.359 4.25-.727 0-1.379-2.007-1.379-4.25s.67-4.19 1.379-4.19c.707 0 1.359 1.947 1.359 4.19zm-2.623 11.272h-1.319v-1.653h1.319c.881 0 1.762-.235 2.641-.235v21.95h1.168v1.655h-5.053v-1.655h1.244V34.86zM144.283 44.655c-1.032.176-2.43.59-2.43 4.78 0 2.005.347 4.66 1.111 4.66.881 0 1.319-1.828 1.319-3.421v-6.02zm0-5.37c0-3.068.076-4.9-1.34-4.9-.209 0-1.014.355-1.014 1.417 0 .295.096.77.193 1.24.094.472.19 1.003.19 1.474 0 2.48-.401 4.132-1.225 4.132-.67 0-1.223-1.358-1.223-3.541 0-4.66 2.065-6.255 3.254-6.255 2.466 0 3.519 2.184 3.519 3.896v14.34c0 1.238.018 2.712.553 2.712.135 0 .404-.412.48-.824l.344 1.12c-.517 2.478-1.072 3.364-1.99 3.364-.823 0-1.512-2.184-1.704-4.072-.671 2.42-1.643 4.072-2.678 4.072-1.032 0-2.237-1.829-2.237-5.489 0-6.902 3.173-8.614 4.878-8.733v-3.952zM158.958 39.167h.037c.344-3.365 1.092-6.315 2.356-6.315.954 0 1.588 1.889 1.588 4.898 0 2.362-.595 4.131-1.358 4.131-.673 0-1.207-1.357-1.207-3.54 0-1.122.096-1.653.229-2.655.06-.414-.441-1.062-1.165 3.126-.368 2.126-.48 3.129-.48 5.488v10.622h1.434v1.652h-5.05v-1.652h.975V34.86h-1.014v-1.653h1.014c.881 0 1.762-.235 2.641-.235v6.195zM176.269 41.587c0-3.777-.899-7.2-1.95-7.2-.576 0-1.092.885-1.092 2.833v15.52c0 1.77.287 3.185.899 3.185 1.207 0 2.143-3.598 2.143-7.198v-7.14zm0 11.623c-.61 2.598-1.376 4.25-2.469 4.25-1.931 0-3.54-5.902-3.54-11.683 0-9.148 2.451-12.924 3.809-12.924.92 0 1.78 1.653 2.164 4.072h.036V18.513h-1.491V16.86h1.491c.879 0 1.76-.412 2.641-.588v38.65H180v1.653h-3.731V53.21z" fill="#000"/></svg>