<svg width="60" height="23" fill="none" xmlns="http://www.w3.org/2000/svg"><path d="M7.076 23h-1.01V0h11.19v1H7.076v1h10.18v1H7.076v1h10.18v1H7.076v5h9.702v1H7.076v1h9.702v1H7.076v1h9.702v1H7.076v8zm-2.021 0H4.044V0h1.01v23zm-2.022 0H2.022V0h1.01v23zM1.01 23H0V0h1.01v23zM19.207 1V0h15.164v1H19.207zm0 2V2h15.164v1H19.207zm0 2V4h15.164v1h-4.044v18h-1.01V5h-1.011v18h-1.011V5h-1.011v18h-1.011V5h-1.011v18h-1.01V5h-4.045zM43.75 23h-1.01V0h11.19v1H43.75v1h10.18v1H43.75v1h10.18v1H43.75v5h9.702v1H43.75v1h9.702v1H43.75v1h9.702v1H43.75v8zm-2.022 0h-1.01V0h1.01v23zm-2.022 0h-1.01V0h1.01v23zm-2.021 0h-1.011V0h1.01v23z" fill="#1E58F9"/><path d="M13.147 23h-1.011V0h11.19v1h-10.18v1h10.18v1h-10.18v1h10.18v1h-10.18v5h9.703v1h-9.702v1h9.702v1h-9.702v1h9.702v1h-9.702v8zm-2.022 0h-1.01V0h1.01v23zm-2.022 0h-1.01V0h1.01v23zm-2.022 0h-1.01V0h1.01v23zM25.278 1V0h15.164v1H25.278zm0 2V2h15.164v1H25.278zm0 2V4h15.164v1h-4.044v18h-1.011V5h-1.01v18h-1.012V5h-1.01v18h-1.012V5h-1.01v18h-1.011V5h-4.044zM49.82 23H48.81V0H60v1H49.82v1H60v1H49.82v1H60v1H49.82v5h9.703v1H49.82v1h9.702v1H49.82v1h9.702v1H49.82v8zm-2.022 0h-1.011V0h1.01v23zm-2.022 0h-1.01V0h1.01v23zm-2.022 0h-1.01V0h1.01v23z" fill="#fff"/></svg>