<svg width="111" height="111" fill="none" xmlns="http://www.w3.org/2000/svg"><g filter="url(#a)"><mask id="b" fill="#fff"><path d="M30 55.152C30 41.26 41.26 30 55.152 30c13.89 0 25.151 11.26 25.151 25.152 0 13.89-11.26 25.151-25.151 25.151S30 69.043 30 55.152z"/></mask><path d="M30 55.152C30 41.26 41.26 30 55.152 30c13.89 0 25.151 11.26 25.151 25.152 0 13.89-11.26 25.151-25.151 25.151S30 69.043 30 55.152z" fill="#050508" shape-rendering="crispEdges"/><path d="M55.152 80.303v-1.156c-13.253 0-23.996-10.743-23.996-23.995h-2.312c0 14.53 11.778 26.307 26.308 26.307v-1.156zm25.151-25.151h-1.156c0 13.252-10.743 23.995-23.995 23.995v2.312c14.53 0 26.307-11.778 26.307-26.307h-1.156zM55.152 30v1.156c13.252 0 23.995 10.743 23.995 23.996h2.312c0-14.53-11.778-26.308-26.307-26.308V30zm0 0v-1.156c-14.53 0-26.308 11.778-26.308 26.308h2.312c0-13.253 10.743-23.996 23.996-23.996V30z" fill="#1E58F9" fill-opacity=".3" mask="url(#b)"/><path d="M70.531 70.531l-8.138-8.137M51.781 66.781c8.284 0 15-6.716 15-15 0-8.284-6.716-15-15-15-8.284 0-15 6.716-15 15 0 8.284 6.716 15 15 15z" stroke="#1E58F9" stroke-width="3.999" stroke-linecap="round" stroke-linejoin="round"/></g><defs><filter id="a" x="0" y="0" width="110.303" height="110.303" filterUnits="userSpaceOnUse" color-interpolation-filters="sRGB"><feFlood flood-opacity="0" result="BackgroundImageFix"/><feColorMatrix in="SourceAlpha" values="0 0 0 0 0 0 0 0 0 0 0 0 0 0 0 0 0 0 127 0" result="hardAlpha"/><feOffset/><feGaussianBlur stdDeviation="15"/><feComposite in2="hardAlpha" operator="out"/><feColorMatrix values="0 0 0 0 0.117647 0 0 0 0 0.345098 0 0 0 0 0.976471 0 0 0 0.2 0"/><feBlend in2="BackgroundImageFix" result="effect1_dropShadow_129_55"/><feBlend in="SourceGraphic" in2="effect1_dropShadow_129_55" result="shape"/><feColorMatrix in="SourceAlpha" values="0 0 0 0 0 0 0 0 0 0 0 0 0 0 0 0 0 0 127 0" result="hardAlpha"/><feOffset/><feGaussianBlur stdDeviation="10"/><feComposite in2="hardAlpha" operator="arithmetic" k2="-1" k3="1"/><feColorMatrix values="0 0 0 0 0.117647 0 0 0 0 0.345098 0 0 0 0 0.976471 0 0 0 0.1 0"/><feBlend in2="shape" result="effect2_innerShadow_129_55"/></filter></defs></svg>